<svg width="30" height="34" viewBox="0 0 30 34" fill="none" xmlns="http://www.w3.org/2000/svg">
<path d="M15 2.5C22.4901 2.5 28.5 9.02741 28.5 17C28.5 24.9726 22.4901 31.5 15 31.5C7.50991 31.5 1.5 24.9726 1.5 17C1.5 9.02741 7.50991 2.5 15 2.5Z" fill="#D9D9D9" stroke="black"/>
<path d="M24.9251 22.4321V24H17.2256V22.4321H24.9251ZM17.6151 9.45978V24H15.6877V9.45978H17.6151ZM23.9065 15.7113V17.2791H17.2256V15.7113H23.9065ZM24.8253 9.45978V11.0376H17.2256V9.45978H24.8253Z" fill="black"/>
<path d="M11.0704 10.748L6.25693 24H4.28961L9.83207 9.45978H11.1003L11.0704 10.748ZM15.1049 24L10.2815 10.748L10.2515 9.45978H11.5198L17.0822 24H15.1049ZM14.8552 18.6173V20.1952H6.68635V18.6173H14.8552Z" fill="black"/>
</svg>
